<svg width="6" height="4" viewBox="0 0 6 4" fill="none" xmlns="http://www.w3.org/2000/svg">
<path d="M4.993 3.21774L4.4956 3.50501C3.48939 4.09045 2.26176 4.09045 1.2536 3.50501L0.754721 3.21774C0.470134 3.05284 0.315483 2.72033 0.368174 2.38661L0.598125 0.934534L5.14145 0.934534L5.37677 2.38635C5.43067 2.72013 5.27713 3.05281 4.993 3.21774ZM4.8703 2.4741L4.70737 1.46799L1.03399 1.46799L0.874161 2.47437C0.856437 2.58573 0.90817 2.69672 1.00327 2.7515L1.50163 3.03877C2.35475 3.53409 3.39352 3.53409 4.24498 3.03877L4.74238 2.7515C4.83694 2.69625 4.88804 2.58543 4.8703 2.4741Z" fill="white"/>
</svg>
