<?xml version="1.0" encoding="UTF-8"?>
<svg width="189px" height="56px" viewBox="0 0 189 56" version="1.1" xmlns="http://www.w3.org/2000/svg" xmlns:xlink="http://www.w3.org/1999/xlink">
    <!-- Generator: Sketch 47.1 (45422) - http://www.bohemiancoding.com/sketch -->
    <title>google-play-badge</title>
    <desc>Created with Sketch.</desc>
    <defs>
        <linearGradient x1="91.5361538%" y1="4.8388%" x2="-37.5592308%" y2="71.9684%" id="linearGradient-1">
            <stop stop-color="#00A0FF" offset="0%"></stop>
            <stop stop-color="#00A1FF" offset="0.657445%"></stop>
            <stop stop-color="#00BEFF" offset="26.01%"></stop>
            <stop stop-color="#00D2FF" offset="51.22%"></stop>
            <stop stop-color="#00DFFF" offset="76.04%"></stop>
            <stop stop-color="#00E3FF" offset="100%"></stop>
        </linearGradient>
        <linearGradient x1="107.728079%" y1="49.4282353%" x2="-130.665025%" y2="49.4282353%" id="linearGradient-2">
            <stop stop-color="#FFE000" offset="0%"></stop>
            <stop stop-color="#FFBD00" offset="40.87%"></stop>
            <stop stop-color="#FFA500" offset="77.54%"></stop>
            <stop stop-color="#FF9C00" offset="100%"></stop>
        </linearGradient>
        <linearGradient x1="86.3892216%" y1="17.8150459%" x2="-49.888024%" y2="194.392791%" id="linearGradient-3">
            <stop stop-color="#FF3A44" offset="0%"></stop>
            <stop stop-color="#C31162" offset="100%"></stop>
        </linearGradient>
        <linearGradient x1="-18.5790419%" y1="-54.5266535%" x2="42.2748503%" y2="24.6901019%" id="linearGradient-4">
            <stop stop-color="#32A071" offset="0%"></stop>
            <stop stop-color="#2DA771" offset="6.85%"></stop>
            <stop stop-color="#15CF74" offset="47.62%"></stop>
            <stop stop-color="#06E775" offset="80.09%"></stop>
            <stop stop-color="#00F076" offset="100%"></stop>
        </linearGradient>
    </defs>
    <g id="Page-1" stroke="none" stroke-width="1" fill="none" fill-rule="evenodd">
        <g id="Homepage" transform="translate(-638.000000, -1022.000000)" fill-rule="nonzero">
            <g id="CTA" transform="translate(395.000000, 738.000000)">
                <g id="google-play-badge" transform="translate(243.000000, 284.000000)">
                    <path d="M182,56 L7,56 C3.08,56 0,52.92 0,49 L0,7 C0,3.08 3.08,0 7,0 L182,0 C185.92,0 189,3.08 189,7 L189,49 C189,52.78 185.92,56 182,56 Z" id="Shape" fill="#000000"></path>
                    <path d="M182,1.12 C185.22,1.12 187.88,3.78 187.88,7 L187.88,49 C187.88,52.22 185.22,54.88 182,54.88 L7,54.88 C3.78,54.88 1.12,52.22 1.12,49 L1.12,7 C1.12,3.78 3.78,1.12 7,1.12 L182,1.12 L182,1.12 Z M182,0 L7,0 C3.08,0 0,3.08 0,7 L0,49 C0,52.92 3.08,56 7,56 L182,56 C185.92,56 189,52.92 189,49 L189,7 C189,3.22 185.92,0 182,0 L182,0 Z" id="Shape" fill="#A6A6A6"></path>
                    <g id="Group" transform="translate(57.000000, 9.000000)" stroke="#FFFFFF" stroke-width="0.2" fill="#FFFFFF">
                        <path d="M8.96,4.775 C8.96,5.875 8.68,6.8375 7.98,7.525 C7.14,8.35 6.16,8.7625 4.9,8.7625 C3.64,8.7625 2.66,8.35 1.82,7.525 C0.98,6.7 0.56,5.7375 0.56,4.5 C0.56,3.2625 0.98,2.3 1.82,1.475 C2.66,0.65 3.64,0.2375 4.9,0.2375 C5.46,0.2375 6.02,0.375 6.58,0.65 C7.14,0.925 7.56,1.2 7.84,1.6125 L7.14,2.3 C6.58,1.6125 5.88,1.3375 4.9,1.3375 C4.06,1.3375 3.22,1.6125 2.66,2.3 C1.96,2.85 1.68,3.675 1.68,4.6375 C1.68,5.6 1.96,6.425 2.66,6.975 C3.36,7.525 4.06,7.9375 4.9,7.9375 C5.88,7.9375 6.58,7.6625 7.28,6.975 C7.7,6.5625 7.98,6.0125 7.98,5.325 L4.9,5.325 L4.9,4.3625 L8.96,4.3625 C8.96,4.3625 8.96,4.6375 8.96,4.775 Z" id="Shape"></path>
                        <polygon id="Shape" points="15.4 1.3375 11.62 1.3375 11.62 3.95 15.12 3.95 15.12 4.9125 11.62 4.9125 11.62 7.525 15.4 7.525 15.4 8.625 10.5 8.625 10.5 0.375 15.4 0.375"></polygon>
                        <polygon id="Shape" points="20.02 8.625 18.9 8.625 18.9 1.3375 16.52 1.3375 16.52 0.375 22.4 0.375 22.4 1.3375 20.02 1.3375"></polygon>
                        <polygon id="Shape" points="26.46 8.625 26.46 0.375 27.58 0.375 27.58 8.625"></polygon>
                        <polygon id="Shape" points="32.34 8.625 31.22 8.625 31.22 1.3375 28.84 1.3375 28.84 0.375 34.58 0.375 34.58 1.3375 32.2 1.3375 32.2 8.625"></polygon>
                        <path d="M45.64,7.525 C44.8,8.35 43.82,8.7625 42.56,8.7625 C41.3,8.7625 40.32,8.35 39.48,7.525 C38.64,6.7 38.22,5.7375 38.22,4.5 C38.22,3.2625 38.64,2.3 39.48,1.475 C40.32,0.65 41.3,0.2375 42.56,0.2375 C43.82,0.2375 44.8,0.65 45.64,1.475 C46.48,2.3 46.9,3.2625 46.9,4.5 C46.9,5.7375 46.48,6.7 45.64,7.525 Z M40.32,6.8375 C40.88,7.3875 41.72,7.8 42.56,7.8 C43.4,7.8 44.24,7.525 44.8,6.8375 C45.36,6.2875 45.78,5.4625 45.78,4.5 C45.78,3.5375 45.5,2.7125 44.8,2.1625 C44.24,1.6125 43.4,1.2 42.56,1.2 C41.72,1.2 40.88,1.475 40.32,2.1625 C39.76,2.7125 39.34,3.5375 39.34,4.5 C39.34,5.4625 39.62,6.2875 40.32,6.8375 Z" id="Shape"></path>
                        <polygon id="Shape" points="48.44 8.625 48.44 0.375 49.7 0.375 53.76 6.8375 53.76 6.8375 53.76 5.1875 53.76 0.375 54.88 0.375 54.88 8.625 53.76 8.625 49.42 1.8875 49.42 1.8875 49.42 3.5375 49.42 8.625"></polygon>
                    </g>
                    <path d="M95.6595745,30.6745562 C92.3120567,30.6745562 89.6619385,33.2307692 89.6619385,36.7810651 C89.6619385,40.1893491 92.3120567,42.887574 95.6595745,42.887574 C99.0070922,42.887574 101.65721,40.3313609 101.65721,36.7810651 C101.65721,33.0887574 99.0070922,30.6745562 95.6595745,30.6745562 Z M95.6595745,40.3313609 C93.8463357,40.3313609 92.3120567,38.7692308 92.3120567,36.6390533 C92.3120567,34.5088757 93.8463357,32.9467456 95.6595745,32.9467456 C97.4728132,32.9467456 99.0070922,34.3668639 99.0070922,36.6390533 C99.0070922,38.7692308 97.4728132,40.3313609 95.6595745,40.3313609 Z M82.6879433,30.6745562 C79.3404255,30.6745562 76.6903073,33.2307692 76.6903073,36.7810651 C76.6903073,40.1893491 79.3404255,42.887574 82.6879433,42.887574 C86.035461,42.887574 88.6855792,40.3313609 88.6855792,36.7810651 C88.6855792,33.0887574 86.035461,30.6745562 82.6879433,30.6745562 Z M82.6879433,40.3313609 C80.8747045,40.3313609 79.3404255,38.7692308 79.3404255,36.6390533 C79.3404255,34.5088757 80.8747045,32.9467456 82.6879433,32.9467456 C84.501182,32.9467456 86.035461,34.3668639 86.035461,36.6390533 C86.035461,38.7692308 84.501182,40.3313609 82.6879433,40.3313609 Z M67.2056738,32.5207101 L67.2056738,35.0769231 L73.2033097,35.0769231 C73.0638298,36.4970414 72.5059102,37.6331361 71.8085106,38.3431953 C70.9716312,39.1952663 69.5768322,40.1893491 67.2056738,40.1893491 C63.4397163,40.1893491 60.6501182,37.2071006 60.6501182,33.3727811 C60.6501182,29.5384615 63.5791962,26.556213 67.2056738,26.556213 C69.1583924,26.556213 70.6926714,27.408284 71.8085106,28.4023669 L73.6217494,26.556213 C72.0874704,25.1360947 70.1347518,24 67.3451537,24 C62.3238771,24 58,28.260355 58,33.3727811 C58,38.4852071 62.3238771,42.7455621 67.3451537,42.7455621 C70.1347518,42.7455621 72.0874704,41.8934911 73.7612293,40.0473373 C75.4349882,38.3431953 75.9929078,35.9289941 75.9929078,34.0828402 C75.9929078,33.5147929 75.9929078,32.9467456 75.8534279,32.5207101 L67.2056738,32.5207101 L67.2056738,32.5207101 Z M130.529551,34.5088757 C129.971631,33.0887574 128.576832,30.6745562 125.508274,30.6745562 C122.439716,30.6745562 119.929078,33.0887574 119.929078,36.7810651 C119.929078,40.1893491 122.439716,42.887574 125.787234,42.887574 C128.437352,42.887574 130.111111,41.183432 130.669031,40.1893491 L128.716312,38.7692308 C128.018913,39.7633136 127.182033,40.4733728 125.787234,40.4733728 C124.392435,40.4733728 123.555556,39.9053254 122.858156,38.6272189 L130.808511,35.2189349 L130.529551,34.5088757 Z M122.439716,36.4970414 C122.439716,34.2248521 124.252955,32.9467456 125.508274,32.9467456 C126.484634,32.9467456 127.460993,33.5147929 127.739953,34.2248521 L122.439716,36.4970414 Z M115.884161,42.3195266 L118.534279,42.3195266 L118.534279,24.5680473 L115.884161,24.5680473 L115.884161,42.3195266 Z M111.699764,31.9526627 L111.699764,31.9526627 C111.002364,31.2426036 109.886525,30.5325444 108.491726,30.5325444 C105.562648,30.5325444 102.77305,33.2307692 102.77305,36.6390533 C102.77305,40.0473373 105.423168,42.6035503 108.491726,42.6035503 C109.886525,42.6035503 111.002364,41.8934911 111.560284,41.183432 L111.699764,41.183432 L111.699764,42.035503 C111.699764,44.3076923 110.444444,45.5857988 108.491726,45.5857988 C106.957447,45.5857988 105.841608,44.4497041 105.562648,43.4556213 L103.330969,44.4497041 C104.028369,46.0118343 105.702128,48 108.631206,48 C111.699764,48 114.210402,46.1538462 114.210402,41.7514793 L114.210402,30.9585799 L111.699764,30.9585799 L111.699764,31.9526627 L111.699764,31.9526627 Z M108.631206,40.3313609 C106.817967,40.3313609 105.283688,38.7692308 105.283688,36.6390533 C105.283688,34.5088757 106.817967,32.9467456 108.631206,32.9467456 C110.444444,32.9467456 111.839243,34.5088757 111.839243,36.6390533 C111.839243,38.7692308 110.444444,40.3313609 108.631206,40.3313609 Z M142.664303,24.5680473 L136.387707,24.5680473 L136.387707,42.3195266 L139.037825,42.3195266 L139.037825,35.6449704 L142.664303,35.6449704 C145.593381,35.6449704 148.382979,33.5147929 148.382979,30.1065089 C148.382979,26.6982249 145.593381,24.5680473 142.664303,24.5680473 Z M142.803783,33.0887574 L139.037825,33.0887574 L139.037825,26.9822485 L142.803783,26.9822485 C144.756501,26.9822485 145.87234,28.6863905 145.87234,29.964497 C145.732861,31.5266272 144.617021,33.0887574 142.803783,33.0887574 Z M158.843972,30.5325444 C156.891253,30.5325444 154.938534,31.3846154 154.241135,33.2307692 L156.612293,34.2248521 C157.170213,33.2307692 158.007092,32.9467456 158.983452,32.9467456 C160.378251,32.9467456 161.63357,33.7988166 161.77305,35.2189349 L161.77305,35.3609467 C161.35461,35.0769231 160.238771,34.6508876 159.122931,34.6508876 C156.612293,34.6508876 154.101655,36.0710059 154.101655,38.6272189 C154.101655,41.0414201 156.193853,42.6035503 158.425532,42.6035503 C160.238771,42.6035503 161.07565,41.7514793 161.77305,40.8994083 L161.91253,40.8994083 L161.91253,42.3195266 L164.423168,42.3195266 L164.423168,35.5029586 C164.144208,32.3786982 161.77305,30.5325444 158.843972,30.5325444 Z M158.565012,40.3313609 C157.728132,40.3313609 156.472813,39.9053254 156.472813,38.7692308 C156.472813,37.3491124 158.007092,36.9230769 159.262411,36.9230769 C160.378251,36.9230769 160.93617,37.2071006 161.63357,37.4911243 C161.35461,39.1952663 159.959811,40.3313609 158.565012,40.3313609 Z M173.210402,30.9585799 L170.281324,38.6272189 L170.141844,38.6272189 L167.073286,30.9585799 L164.283688,30.9585799 L168.886525,41.7514793 L166.236407,47.7159763 L168.886525,47.7159763 L176,30.9585799 L173.210402,30.9585799 Z M149.777778,42.3195266 L152.427896,42.3195266 L152.427896,24.5680473 L149.777778,24.5680473 L149.777778,42.3195266 Z" id="Shape" fill="#FFFFFF"></path>
                    <g id="Group" transform="translate(14.000000, 10.000000)">
                        <path d="M0.96,0.692307692 C0.54,1.10769231 0.26,1.8 0.26,2.63076923 L0.26,33.2307692 C0.26,34.0615385 0.54,34.7538462 0.96,35.1692308 L1.1,35.3076923 L18.46,18.1384615 L18.46,18 L18.46,17.8615385 L0.96,0.692307692 L0.96,0.692307692 Z" id="Shape" fill="url(#linearGradient-1)"></path>
                        <path d="M24.2,23.9538462 L18.46,18.2769231 L18.46,18 L18.46,17.8615385 L24.2,12.1846154 L24.34,12.3230769 L31.2,16.2 C33.16,17.3076923 33.16,19.1076923 31.2,20.2153846 L24.2,23.9538462 L24.2,23.9538462 Z" id="Shape" fill="url(#linearGradient-2)"></path>
                        <path d="M24.34,23.8153846 L18.46,18 L0.96,35.3076923 C1.66,36 2.64,36 3.9,35.4461538 L24.34,23.8153846" id="Shape" fill="url(#linearGradient-3)"></path>
                        <path d="M24.34,12.1846154 L3.9,0.692307692 C2.64,2.41473508e-15 1.66,0.138461538 0.96,0.830769231 L18.46,18 L24.34,12.1846154 Z" id="Shape" fill="url(#linearGradient-4)"></path>
                        <g transform="translate(0.400000, 23.538462)" id="Shape" fill="#000000">
                            <path d="M23.8,0.138461538 L3.5,11.4923077 C2.38,12.1846154 1.4,12.0461538 0.7,11.4923077 L0.7,11.4923077 L0.56,11.6307692 L0.56,11.6307692 L0.7,11.7692308 L0.7,11.7692308 C1.4,12.3230769 2.38,12.4615385 3.5,11.7692308 L23.8,0.138461538 L23.8,0.138461538 Z" opacity="0.2"></path>
                            <path d="M0.56,11.4923077 C0.14,11.0769231 0,10.3846154 0,9.55384615 L0,9.69230769 C0,10.5230769 0.28,11.2153846 0.7,11.6307692 L0.7,11.4923077 L0.56,11.4923077 Z" opacity="0.12"></path>
                        </g>
                        <path d="M31.2,19.8 L24.2,23.6769231 L24.34,23.8153846 L31.2,19.9384615 C32.18,19.3846154 32.6,18.6923077 32.6,18 L32.6,18 C32.6,18.6923077 32.04,19.2461538 31.2,19.8 Z" id="Shape" fill="#000000" opacity="0.12"></path>
                        <path d="M3.9,0.830769231 L31.2,16.2 C32.04,16.7538462 32.6,17.3076923 32.6,18 L32.6,18 C32.6,17.3076923 32.18,16.6153846 31.2,16.0615385 L3.9,0.692307692 C1.94,-0.415384615 0.4,0.553846154 0.4,2.76923077 L0.4,2.90769231 C0.4,0.692307692 1.94,-0.276923077 3.9,0.830769231 Z" id="Shape" fill="#FFFFFF" opacity="0.25"></path>
                    </g>
                </g>
            </g>
        </g>
    </g>
</svg>